<svg version="1.2" xmlns="http://www.w3.org/2000/svg" viewBox="0 0 332 195" width="332" height="195"><style>.s0{fill:#000000}</style><path class="s0" d="m17 74.7c2.6 0 4.7 2.1 4.7 4.7c0 2.6-2.1 4.6-4.7 4.6c-2.6 0-4.6-2-4.6-4.6c0-2.6 2-4.7 4.6-4.7zm12.4 0c2.6 0 4.7 2.1 4.7 4.7c0 2.6-2.1 4.6-4.7 4.6c-2.6 0-4.6-2-4.6-4.6c0-2.6 2-4.7 4.6-4.7zm12.4 0c2.6 0 4.7 2.1 4.7 4.7c0 2.6-2.1 4.6-4.7 4.6c-2.6 0-4.6-2-4.6-4.6c0-2.6 2-4.7 4.6-4.7zm12.4 0c2.6 0 4.7 2.1 4.7 4.7c0 2.6-2.1 4.6-4.7 4.6c-2.6 0-4.6-2-4.6-4.6c0-2.6 2-4.7 4.6-4.7zm-49.6-12.4c2.6 0 4.7 2.1 4.7 4.7c0 2.6-2.1 4.6-4.7 4.6c-2.6 0-4.6-2-4.6-4.6c0-2.6 2-4.7 4.6-4.7zm49.6 0c2.6 0 4.7 2.1 4.7 4.7c0 2.6-2.1 4.6-4.7 4.6c-2.6 0-4.6-2-4.6-4.6c0-2.6 2-4.7 4.6-4.7zm-37.2-12.4c2.6 0 4.7 2.1 4.7 4.7c0 2.6-2.1 4.6-4.7 4.6c-2.6 0-4.6-2-4.6-4.6c0-2.6 2-4.7 4.6-4.7zm12.4 0c2.6 0 4.7 2.1 4.7 4.7c0 2.6-2.1 4.6-4.7 4.6c-2.6 0-4.6-2-4.6-4.6c0-2.6 2-4.7 4.6-4.7zm12.4 0c2.6 0 4.7 2.1 4.7 4.7c0 2.6-2.1 4.6-4.7 4.6c-2.6 0-4.6-2-4.6-4.6c0-2.6 2-4.7 4.6-4.7zm12.4 0c2.6 0 4.7 2.1 4.7 4.7c0 2.6-2.1 4.6-4.7 4.6c-2.6 0-4.6-2-4.6-4.6c0-2.6 2-4.7 4.6-4.7zm0-12.4c2.6 0 4.7 2.1 4.7 4.7c0 2.6-2.1 4.6-4.7 4.6c-2.6 0-4.6-2-4.6-4.6c0-2.6 2-4.7 4.6-4.7zm-37.2-12.4c2.6 0 4.7 2.1 4.7 4.7c0 2.6-2.1 4.6-4.7 4.6c-2.6 0-4.6-2-4.6-4.6c0-2.6 2-4.7 4.6-4.7zm12.4 0c2.6 0 4.7 2.1 4.7 4.7c0 2.6-2.1 4.6-4.7 4.6c-2.6 0-4.6-2-4.6-4.6c0-2.6 2-4.7 4.6-4.7zm12.4 0c2.6 0 4.7 2.1 4.7 4.7c0 2.6-2.1 4.6-4.7 4.6c-2.6 0-4.6-2-4.6-4.6c0-2.6 2-4.7 4.6-4.7zm49.6 49.6c2.6 0 4.7 2.1 4.7 4.7c0 2.6-2.1 4.6-4.7 4.6c-2.6 0-4.6-2-4.6-4.6c0-2.6 2-4.7 4.6-4.7zm0-12.4c2.6 0 4.7 2.1 4.7 4.7c0 2.6-2.1 4.6-4.7 4.6c-2.6 0-4.6-2-4.6-4.6c0-2.6 2-4.7 4.6-4.7zm0-12.4c2.6 0 4.7 2.1 4.7 4.7c0 2.6-2.1 4.6-4.7 4.6c-2.6 0-4.6-2-4.6-4.6c0-2.6 2-4.7 4.6-4.7zm0-12.4c2.6 0 4.7 2.1 4.7 4.7c0 2.6-2.1 4.6-4.7 4.6c-2.6 0-4.6-2-4.6-4.6c0-2.6 2-4.7 4.6-4.7zm12.4 0c2.6 0 4.7 2.1 4.7 4.7c0 2.6-2.1 4.6-4.7 4.6c-2.6 0-4.6-2-4.6-4.6c0-2.6 2-4.7 4.6-4.7zm-12.4-12.4c2.6 0 4.7 2.1 4.7 4.7c0 2.6-2.1 4.6-4.7 4.6c-2.6 0-4.6-2-4.6-4.6c0-2.6 2-4.7 4.6-4.7zm24.8 0c2.6 0 4.7 2.1 4.7 4.7c0 2.6-2.1 4.6-4.7 4.6c-2.6 0-4.6-2-4.6-4.6c0-2.6 2-4.7 4.6-4.7zm12.4 0c2.6 0 4.7 2.1 4.7 4.7c0 2.6-2.1 4.6-4.7 4.6c-2.6 0-4.6-2-4.6-4.6c0-2.6 2-4.7 4.6-4.7zm-49.6 49.6c2.6 0 4.7 2.1 4.7 4.7c0 2.6-2.1 4.6-4.7 4.6c-2.6 0-4.6-2-4.6-4.6c0-2.6 2-4.7 4.6-4.7zm24.8 0c2.6 0 4.7 2.1 4.7 4.7c0 2.6-2.1 4.6-4.7 4.6c-2.6 0-4.6-2-4.6-4.6c0-2.6 2-4.7 4.6-4.7zm12.4 0c2.6 0 4.7 2.1 4.7 4.7c0 2.6-2.1 4.6-4.7 4.6c-2.6 0-4.6-2-4.6-4.6c0-2.6 2-4.7 4.6-4.7zm-37.2-49.6c2.6 0 4.7 2.1 4.7 4.7c0 2.6-2.1 4.6-4.7 4.6c-2.6 0-4.6-2-4.6-4.6c0-2.6 2-4.7 4.6-4.7zm86.8 49.6c2.6 0 4.7 2.1 4.7 4.7c0 2.6-2.1 4.6-4.7 4.6c-2.6 0-4.6-2-4.6-4.6c0-2.6 2-4.7 4.6-4.7zm12.4 0c2.6 0 4.7 2.1 4.7 4.7c0 2.6-2.1 4.6-4.7 4.6c-2.6 0-4.6-2-4.6-4.6c0-2.6 2-4.7 4.6-4.7zm12.4 0c2.6 0 4.7 2.1 4.7 4.7c0 2.6-2.1 4.6-4.7 4.6c-2.6 0-4.6-2-4.6-4.6c0-2.6 2-4.7 4.6-4.7zm-37.2-12.4c2.6 0 4.7 2.1 4.7 4.7c0 2.6-2.1 4.6-4.7 4.6c-2.6 0-4.6-2-4.6-4.6c0-2.6 2-4.7 4.6-4.7zm49.6 0c2.6 0 4.7 2.1 4.7 4.7c0 2.6-2.1 4.6-4.7 4.6c-2.6 0-4.6-2-4.6-4.6c0-2.6 2-4.7 4.6-4.7zm-49.6-12.4c2.6 0 4.7 2.1 4.7 4.7c0 2.6-2.1 4.6-4.7 4.6c-2.6 0-4.6-2-4.6-4.6c0-2.6 2-4.7 4.6-4.7zm0-12.4c2.6 0 4.7 2.1 4.7 4.7c0 2.6-2.1 4.6-4.7 4.6c-2.6 0-4.6-2-4.6-4.6c0-2.6 2-4.7 4.6-4.7zm49.6 0c2.6 0 4.7 2.1 4.7 4.7c0 2.6-2.1 4.6-4.7 4.6c-2.6 0-4.6-2-4.6-4.6c0-2.6 2-4.7 4.6-4.7zm-37.2-12.4c2.6 0 4.7 2.1 4.7 4.7c0 2.6-2.1 4.6-4.7 4.6c-2.6 0-4.6-2-4.6-4.6c0-2.6 2-4.7 4.6-4.7zm12.4 0c2.6 0 4.7 2.1 4.7 4.7c0 2.6-2.1 4.6-4.7 4.6c-2.6 0-4.6-2-4.6-4.6c0-2.6 2-4.7 4.6-4.7zm12.4 0c2.6 0 4.7 2.1 4.7 4.7c0 2.6-2.1 4.6-4.7 4.6c-2.6 0-4.6-2-4.6-4.6c0-2.6 2-4.7 4.6-4.7zm37.2 49.6c2.6 0 4.7 2.1 4.7 4.7c0 2.6-2.1 4.6-4.7 4.6c-2.6 0-4.6-2-4.6-4.6c0-2.6 2-4.7 4.6-4.7zm49.6 0c2.6 0 4.7 2.1 4.7 4.7c0 2.6-2.1 4.6-4.7 4.6c-2.6 0-4.6-2-4.6-4.6c0-2.6 2-4.7 4.6-4.7zm-49.6-12.4c2.6 0 4.7 2.1 4.7 4.7c0 2.6-2.1 4.6-4.7 4.6c-2.6 0-4.6-2-4.6-4.6c0-2.6 2-4.7 4.6-4.7zm49.6 0c2.6 0 4.7 2.1 4.7 4.7c0 2.6-2.1 4.6-4.7 4.6c-2.6 0-4.6-2-4.6-4.6c0-2.6 2-4.7 4.6-4.7zm-49.6-12.4c2.6 0 4.7 2.1 4.7 4.7c0 2.6-2.1 4.6-4.7 4.6c-2.6 0-4.6-2-4.6-4.6c0-2.6 2-4.7 4.6-4.7zm49.6 0c2.6 0 4.7 2.1 4.7 4.7c0 2.6-2.1 4.6-4.7 4.6c-2.6 0-4.6-2-4.6-4.6c0-2.6 2-4.7 4.6-4.7zm-49.6-12.4c2.6 0 4.7 2.1 4.7 4.7c0 2.6-2.1 4.6-4.7 4.6c-2.6 0-4.6-2-4.6-4.6c0-2.6 2-4.7 4.6-4.7zm49.6 0c2.6 0 4.7 2.1 4.7 4.7c0 2.6-2.1 4.6-4.7 4.6c-2.6 0-4.6-2-4.6-4.6c0-2.6 2-4.7 4.6-4.7zm-49.6-12.4c2.6 0 4.7 2.1 4.7 4.7c0 2.6-2.1 4.6-4.7 4.6c-2.6 0-4.6-2-4.6-4.6c0-2.6 2-4.7 4.6-4.7zm12.4 0c2.6 0 4.7 2.1 4.7 4.7c0 2.6-2.1 4.6-4.7 4.6c-2.6 0-4.6-2-4.6-4.6c0-2.6 2-4.7 4.6-4.7zm12.4 0c2.6 0 4.7 2.1 4.7 4.7c0 2.6-2.1 4.6-4.7 4.6c-2.6 0-4.6-2-4.6-4.6c0-2.6 2-4.7 4.6-4.7zm12.4 0c2.6 0 4.7 2.1 4.7 4.7c0 2.6-2.1 4.6-4.7 4.6c-2.6 0-4.6-2-4.6-4.6c0-2.6 2-4.7 4.6-4.7zm-37.2-12.4c2.6 0 4.7 2.1 4.7 4.7c0 2.6-2.1 4.6-4.7 4.6c-2.6 0-4.6-2-4.6-4.6c0-2.6 2-4.7 4.6-4.7zm0-12.4c2.6 0 4.7 2.1 4.7 4.7c0 2.6-2.1 4.6-4.7 4.6c-2.6 0-4.6-2-4.6-4.6c0-2.6 2-4.7 4.6-4.7zm99.2 74.4c2.6 0 4.7 2.1 4.7 4.7c0 2.6-2.1 4.6-4.7 4.6c-2.6 0-4.6-2-4.6-4.6c0-2.6 2-4.7 4.6-4.7zm0-12.4c2.6 0 4.7 2.1 4.7 4.7c0 2.6-2.1 4.6-4.7 4.6c-2.6 0-4.6-2-4.6-4.6c0-2.6 2-4.7 4.6-4.7zm-285.2 123.4c2.6 0 4.7 2.1 4.7 4.7c0 2.6-2.1 4.6-4.7 4.6c-2.6 0-4.6-2-4.6-4.6c0-2.6 2-4.7 4.6-4.7zm12.4 0c2.6 0 4.7 2.1 4.7 4.7c0 2.6-2.1 4.6-4.7 4.6c-2.6 0-4.6-2-4.6-4.6c0-2.6 2-4.7 4.6-4.7zm-24.8-12.4c2.6 0 4.7 2.1 4.7 4.7c0 2.6-2.1 4.6-4.7 4.6c-2.6 0-4.6-2-4.6-4.6c0-2.6 2-4.7 4.6-4.7zm0-12.4c2.6 0 4.7 2.1 4.7 4.7c0 2.6-2.1 4.6-4.7 4.6c-2.6 0-4.6-2-4.6-4.6c0-2.6 2-4.7 4.6-4.7zm0-12.4c2.6 0 4.7 2.1 4.7 4.7c0 2.6-2.1 4.6-4.7 4.6c-2.6 0-4.6-2-4.6-4.6c0-2.6 2-4.7 4.6-4.7zm-24.8-12.4c2.6 0 4.7 2.1 4.7 4.7c0 2.6-2.1 4.6-4.7 4.6c-2.6 0-4.6-2-4.6-4.6c0-2.6 2-4.7 4.6-4.7zm12.4 0c2.6 0 4.7 2.1 4.7 4.7c0 2.6-2.1 4.6-4.7 4.6c-2.6 0-4.6-2-4.6-4.6c0-2.6 2-4.7 4.6-4.7zm12.4 0c2.6 0 4.7 2.1 4.7 4.7c0 2.6-2.1 4.6-4.7 4.6c-2.6 0-4.6-2-4.6-4.6c0-2.6 2-4.7 4.6-4.7zm12.4 0c2.6 0 4.7 2.1 4.7 4.7c0 2.6-2.1 4.6-4.7 4.6c-2.6 0-4.6-2-4.6-4.6c0-2.6 2-4.7 4.6-4.7zm12.4 0c2.6 0 4.7 2.1 4.7 4.7c0 2.6-2.1 4.6-4.7 4.6c-2.6 0-4.6-2-4.6-4.6c0-2.6 2-4.7 4.6-4.7zm-24.8-12.4c2.6 0 4.7 2.1 4.7 4.7c0 2.6-2.1 4.6-4.7 4.6c-2.6 0-4.6-2-4.6-4.6c0-2.6 2-4.7 4.6-4.7zm62 62c2.6 0 4.7 2.1 4.7 4.7c0 2.6-2.1 4.6-4.7 4.6c-2.6 0-4.6-2-4.6-4.6c0-2.6 2-4.7 4.6-4.7zm12.4 0c2.6 0 4.7 2.1 4.7 4.7c0 2.6-2.1 4.6-4.7 4.6c-2.6 0-4.6-2-4.6-4.6c0-2.6 2-4.7 4.6-4.7zm12.4 0c2.6 0 4.7 2.1 4.7 4.7c0 2.6-2.1 4.6-4.7 4.6c-2.6 0-4.6-2-4.6-4.6c0-2.6 2-4.7 4.6-4.7zm12.4 0c2.6 0 4.7 2.1 4.7 4.7c0 2.6-2.1 4.6-4.7 4.6c-2.6 0-4.6-2-4.6-4.6c0-2.6 2-4.7 4.6-4.7zm-49.6-12.4c2.6 0 4.7 2.1 4.7 4.7c0 2.6-2.1 4.6-4.7 4.6c-2.6 0-4.6-2-4.6-4.6c0-2.6 2-4.7 4.6-4.7zm0-12.4c2.6 0 4.7 2.1 4.7 4.7c0 2.6-2.1 4.6-4.7 4.6c-2.6 0-4.6-2-4.6-4.6c0-2.6 2-4.7 4.6-4.7zm12.4 0c2.6 0 4.7 2.1 4.7 4.7c0 2.6-2.1 4.6-4.7 4.6c-2.6 0-4.6-2-4.6-4.6c0-2.6 2-4.7 4.6-4.7zm12.4 0c2.6 0 4.7 2.1 4.7 4.7c0 2.6-2.1 4.6-4.7 4.6c-2.6 0-4.6-2-4.6-4.6c0-2.6 2-4.7 4.6-4.7zm12.4 0c2.6 0 4.7 2.1 4.7 4.7c0 2.6-2.1 4.6-4.7 4.6c-2.6 0-4.6-2-4.6-4.6c0-2.6 2-4.7 4.6-4.7zm12.4 0c2.6 0 4.7 2.1 4.7 4.7c0 2.6-2.1 4.6-4.7 4.6c-2.6 0-4.6-2-4.6-4.6c0-2.6 2-4.7 4.6-4.7zm-49.6-12.4c2.6 0 4.7 2.1 4.7 4.7c0 2.6-2.1 4.6-4.7 4.6c-2.6 0-4.6-2-4.6-4.6c0-2.6 2-4.7 4.6-4.7zm49.6 0c2.6 0 4.7 2.1 4.7 4.7c0 2.6-2.1 4.6-4.7 4.6c-2.6 0-4.6-2-4.6-4.6c0-2.6 2-4.7 4.6-4.7zm-37.2-12.4c2.6 0 4.7 2.1 4.7 4.7c0 2.6-2.1 4.6-4.7 4.6c-2.6 0-4.6-2-4.6-4.6c0-2.6 2-4.7 4.6-4.7zm12.4 0c2.6 0 4.7 2.1 4.7 4.7c0 2.6-2.1 4.6-4.7 4.6c-2.6 0-4.6-2-4.6-4.6c0-2.6 2-4.7 4.6-4.7zm12.4 0c2.6 0 4.7 2.1 4.7 4.7c0 2.6-2.1 4.6-4.7 4.6c-2.6 0-4.6-2-4.6-4.6c0-2.6 2-4.7 4.6-4.7zm49.6 49.6c2.6 0 4.7 2.1 4.7 4.7c0 2.6-2.1 4.6-4.7 4.6c-2.6 0-4.6-2-4.6-4.6c0-2.6 2-4.7 4.6-4.7zm12.4 0c2.6 0 4.7 2.1 4.7 4.7c0 2.6-2.1 4.6-4.7 4.6c-2.6 0-4.6-2-4.6-4.6c0-2.6 2-4.7 4.6-4.7zm12.4 0c2.6 0 4.7 2.1 4.7 4.7c0 2.6-2.1 4.6-4.7 4.6c-2.6 0-4.6-2-4.6-4.6c0-2.6 2-4.7 4.6-4.7zm-37.2-12.4c2.6 0 4.7 2.1 4.7 4.7c0 2.6-2.1 4.6-4.7 4.6c-2.6 0-4.6-2-4.6-4.6c0-2.6 2-4.7 4.6-4.7zm49.6 0c2.6 0 4.7 2.1 4.7 4.7c0 2.6-2.1 4.6-4.7 4.6c-2.6 0-4.6-2-4.6-4.6c0-2.6 2-4.7 4.6-4.7zm-49.6-12.4c2.6 0 4.7 2.1 4.7 4.7c0 2.6-2.1 4.6-4.7 4.6c-2.6 0-4.6-2-4.6-4.6c0-2.6 2-4.7 4.6-4.7zm0-12.4c2.6 0 4.7 2.1 4.7 4.7c0 2.6-2.1 4.6-4.7 4.6c-2.6 0-4.6-2-4.6-4.6c0-2.6 2-4.7 4.6-4.7zm49.6 0c2.6 0 4.7 2.1 4.7 4.7c0 2.6-2.1 4.6-4.7 4.6c-2.6 0-4.6-2-4.6-4.6c0-2.6 2-4.7 4.6-4.7zm-37.2-12.4c2.6 0 4.7 2.1 4.7 4.7c0 2.6-2.1 4.6-4.7 4.6c-2.6 0-4.6-2-4.6-4.6c0-2.6 2-4.7 4.6-4.7zm12.4 0c2.6 0 4.7 2.1 4.7 4.7c0 2.6-2.1 4.6-4.7 4.6c-2.6 0-4.6-2-4.6-4.6c0-2.6 2-4.7 4.6-4.7zm12.4 0c2.6 0 4.7 2.1 4.7 4.7c0 2.6-2.1 4.6-4.7 4.6c-2.6 0-4.6-2-4.6-4.6c0-2.6 2-4.7 4.6-4.7zm37.2 49.6c2.6 0 4.7 2.1 4.7 4.7c0 2.6-2.1 4.6-4.7 4.6c-2.6 0-4.6-2-4.6-4.6c0-2.6 2-4.7 4.6-4.7zm49.6 0c2.6 0 4.7 2.1 4.7 4.7c0 2.6-2.1 4.6-4.7 4.6c-2.6 0-4.6-2-4.6-4.6c0-2.6 2-4.7 4.6-4.7zm-49.6-12.4c2.6 0 4.7 2.1 4.7 4.7c0 2.6-2.1 4.6-4.7 4.6c-2.6 0-4.6-2-4.6-4.6c0-2.6 2-4.7 4.6-4.7zm49.6 0c2.6 0 4.7 2.1 4.7 4.7c0 2.6-2.1 4.6-4.7 4.6c-2.6 0-4.6-2-4.6-4.6c0-2.6 2-4.7 4.6-4.7zm-49.6-12.4c2.6 0 4.7 2.1 4.7 4.7c0 2.6-2.1 4.6-4.7 4.6c-2.6 0-4.6-2-4.6-4.6c0-2.6 2-4.7 4.6-4.7zm49.6 0c2.6 0 4.7 2.1 4.7 4.7c0 2.6-2.1 4.6-4.7 4.6c-2.6 0-4.6-2-4.6-4.6c0-2.6 2-4.7 4.6-4.7zm-49.6-12.4c2.6 0 4.7 2.1 4.7 4.7c0 2.6-2.1 4.6-4.7 4.6c-2.6 0-4.6-2-4.6-4.6c0-2.6 2-4.7 4.6-4.7zm49.6 0c2.6 0 4.7 2.1 4.7 4.7c0 2.6-2.1 4.6-4.7 4.6c-2.6 0-4.6-2-4.6-4.6c0-2.6 2-4.7 4.6-4.7zm-49.6-12.4c2.6 0 4.7 2.1 4.7 4.7c0 2.6-2.1 4.6-4.7 4.6c-2.6 0-4.6-2-4.6-4.6c0-2.6 2-4.7 4.6-4.7zm12.4 0c2.6 0 4.7 2.1 4.7 4.7c0 2.6-2.1 4.6-4.7 4.6c-2.6 0-4.6-2-4.6-4.6c0-2.6 2-4.7 4.6-4.7zm12.4 0c2.6 0 4.7 2.1 4.7 4.7c0 2.6-2.1 4.6-4.7 4.6c-2.6 0-4.6-2-4.6-4.6c0-2.6 2-4.7 4.6-4.7zm12.4 0c2.6 0 4.7 2.1 4.7 4.7c0 2.6-2.1 4.6-4.7 4.6c-2.6 0-4.6-2-4.6-4.6c0-2.6 2-4.7 4.6-4.7zm-37.2-12.4c2.6 0 4.7 2.1 4.7 4.7c0 2.6-2.1 4.6-4.7 4.6c-2.6 0-4.6-2-4.6-4.6c0-2.6 2-4.7 4.6-4.7zm0-12.4c2.6 0 4.7 2.1 4.7 4.7c0 2.6-2.1 4.6-4.7 4.6c-2.6 0-4.6-2-4.6-4.6c0-2.6 2-4.7 4.6-4.7zm99.2 74.4c2.6 0 4.7 2.1 4.7 4.7c0 2.6-2.1 4.6-4.7 4.6c-2.6 0-4.6-2-4.6-4.6c0-2.6 2-4.7 4.6-4.7zm0-12.4c2.6 0 4.7 2.1 4.7 4.7c0 2.6-2.1 4.6-4.7 4.6c-2.6 0-4.6-2-4.6-4.6c0-2.6 2-4.7 4.6-4.7z" /></svg>